<svg width="135" height="135" viewBox="0 0 135 135" fill="none" xmlns="http://www.w3.org/2000/svg">
<circle cx="67.5" cy="67.5" r="67" fill="black" stroke="white"/>
<path d="M18.9751 53.544H20.8951L32.5591 74.184L44.1751 53.544H45.9511V86.952H18.9751V53.544ZM20.7511 85.224H44.1751V57.144L33.3751 76.152H31.6951L20.7511 56.856V85.224ZM68.4744 67.512L82.3944 87H55.5144V53.592H82.3944L68.4744 67.512ZM67.2264 68.76L57.2904 78.696V85.224H78.9864L67.2264 68.76ZM92.4376 87V53.592H106.406C108.742 53.592 110.758 54.024 112.454 54.888C114.406 55.88 115.958 57.304 117.11 59.16C118.262 60.984 118.838 63 118.838 65.208C118.838 67.416 118.262 69.448 117.11 71.304C115.99 73.16 114.454 74.584 112.502 75.576C110.838 76.44 108.806 76.872 106.406 76.872H101.174V87H92.4376Z" fill="white"/>
</svg>
